<svg width="60" height="59" viewBox="0 0 60 59" fill="none" xmlns="http://www.w3.org/2000/svg">
<path d="M35.8963 9.31543H33.9943V20.9422H35.8963V9.31543Z" fill="#F2F2F2"/>
<path d="M34.9503 7.00402C35.5419 7.00402 35.9488 6.54474 36.1435 6.27017C36.7076 5.46394 36.7849 4.19093 36.3282 3.24491C36.2807 3.17502 36.3257 3.23992 36.2907 3.16005L34.9528 0L33.585 3.24741C33.575 3.27487 33.5625 3.30232 33.5475 3.32978C33.1881 4.07611 33.1681 5.04709 33.4976 5.8034C33.8246 6.54474 34.3762 7.00402 34.9503 7.00402Z" fill="#F9A000"/>
<path d="M25.5975 9.31543H23.6954V20.9422H25.5975V9.31543Z" fill="#F2F2F2"/>
<path d="M24.6514 7.00397C25.2429 7.00397 25.6523 6.54469 25.847 6.27012C26.4086 5.46388 26.4885 4.18838 26.0292 3.23987C25.9868 3.16998 26.0267 3.23737 25.9918 3.15999L24.6539 0.00244141L23.2835 3.24985C22.8841 4.07606 22.8667 5.04704 23.1961 5.80585C23.5206 6.54718 24.0773 7.00397 24.6514 7.00397Z" fill="#F9A000"/>
<path d="M55.7053 40.5489C55.7053 37.5212 54.9215 34.6731 53.5512 32.192H29.1669V38.7842C29.1669 38.7917 29.1669 38.8016 29.1644 38.8091C29.1369 41.4625 26.9703 43.6116 24.3095 43.6116C21.6312 43.6116 19.4521 41.435 19.4521 38.7567V35.0425C18.7382 35.4819 17.8995 35.7365 17.001 35.7365C14.7994 35.7365 12.9473 34.2113 12.4431 32.1646H6.0581C4.67777 34.6532 3.88651 37.5087 3.88651 40.5489V54.3897H55.7053V40.5489Z" fill="white"/>
<path d="M0.544147 57.3751C1.29048 58.3935 2.4911 59 3.75162 59H55.8375C57.098 59 58.2986 58.3935 59.045 57.3751L59.5891 56.6312H0L0.544147 57.3751Z" fill="#6D3805"/>
<path d="M14.5497 31.0439C14.5497 32.3943 15.6504 33.4951 17.0008 33.4951C18.3512 33.4951 19.452 32.3943 19.452 31.0439C19.452 30.4249 19.9562 29.9232 20.5727 29.9232C21.1918 29.9232 21.6935 30.4249 21.6935 31.0439V38.7568C21.6935 40.1995 22.8666 41.3702 24.3094 41.3702C25.7521 41.3702 26.9253 40.1995 26.9253 38.7568V31.0714C26.9253 30.4523 27.4295 29.9506 28.046 29.9506H52.0609C48.8784 25.8421 43.9062 23.1837 38.3124 23.1837H21.2816C15.7004 23.1837 10.7381 25.8321 7.55313 29.9232H13.4289C14.0455 29.9232 14.5497 30.4249 14.5497 31.0439Z" fill="#6D3805"/>
</svg>
