<svg width="60" height="55" viewBox="0 0 60 55" fill="none" xmlns="http://www.w3.org/2000/svg">
<path fill-rule="evenodd" clip-rule="evenodd" d="M18.6801 0.00425728C13.9675 0.00425728 9.20906 0.00425728 4.49651 0.00425728C3.06231 0.183285 3.17441 2.29232 4.62003 2.32022H5.50307V2.56543C5.37722 7.90675 0.107204 13.767 0 19.7628H23.1731C22.5415 13.6519 17.8248 7.91687 17.8248 2.56998V2.32022H18.5531C20.1534 2.46204 20.2867 0.0341781 18.6812 0L18.6801 0.00425728ZM0.0312292 38.3674V47.6043C0.0312292 49.0881 0.520872 50.6482 1.39692 51.8272C2.39508 53.1711 4.21242 54.6427 5.5026 54.6427H17.8243C19.1982 54.6427 20.4249 53.6118 21.3793 52.4902C20.5615 50.434 20.0593 48.0695 19.6724 45.9556C19.1686 43.2086 18.9304 40.9422 18.9304 40.9422C18.9304 40.8655 18.9304 40.7888 18.9304 40.7098C17.784 40.3108 16.8133 39.4779 16.3405 38.3666L0.0312292 38.3674Z" fill="#8ABDD2"/>
<path fill-rule="evenodd" clip-rule="evenodd" d="M39.3134 19.7637C38.851 19.7637 38.3919 19.8242 37.9661 19.9683C36.5044 20.4659 35.1338 21.6075 34.1061 23.2606C35.7202 24.9693 36.8272 27.379 37.2924 30.2039H40.7336C41.2277 27.156 42.5125 24.6483 44.3068 22.9473C43.3242 21.4513 42.0662 20.3931 40.6697 19.9683C40.239 19.8381 39.7755 19.766 39.3134 19.7637Z" fill="white"/>
<path d="M13.9722 30.2289C13.9722 31.5128 12.9288 32.554 11.6417 32.554C10.3546 32.554 9.31116 31.5128 9.31116 30.2289C9.31116 28.9448 11.6417 25.5789 11.6417 25.5789C11.6417 25.5789 13.9722 28.9448 13.9722 30.2289Z" fill="white"/>
<path fill-rule="evenodd" clip-rule="evenodd" d="M20.9656 40.7344C20.9656 40.7344 21.8543 49.5027 23.9757 53.2463C24.3007 53.8201 24.7244 54.6478 25.3922 54.6415C27.5163 54.616 30.3494 54.616 32.4747 54.6415C33.1424 54.6415 33.5291 53.799 33.8912 53.2463C35.251 51.1717 36.5472 46.3163 36.5472 46.3163L41.5041 46.2908C41.5041 46.2908 43.0843 51.1393 44.5142 53.2205C44.8885 53.7655 45.2629 54.622 45.9307 54.616C48.056 54.5904 50.8891 54.5904 53.0132 54.616C53.6809 54.616 54.1121 53.7996 54.4298 53.2205C56.4885 49.472 57.0856 40.7086 57.0856 40.7086" fill="#8ABDD2"/>
<path fill-rule="evenodd" clip-rule="evenodd" d="M49.5094 22.67C49.047 22.67 48.5879 22.7305 48.1621 22.8747C45.407 23.8128 42.9744 27.0115 42.5952 31.7162H56.4145C55.9864 27.0789 53.6852 23.7322 50.8658 22.8747C50.4351 22.7445 49.9715 22.6747 49.5094 22.67Z" fill="white"/>
<path fill-rule="evenodd" clip-rule="evenodd" d="M28.5347 22.67C28.0723 22.67 27.6132 22.7305 27.1874 22.8747C24.4323 23.8128 21.9997 27.0115 21.6205 31.7162H35.4398C35.0117 27.0789 32.7105 23.7322 29.8911 22.8747C29.4604 22.7445 28.9968 22.6747 28.5347 22.67Z" fill="white"/>
<path d="M20.3812 33.7083H57.6695C58.9607 33.7083 60 34.6416 60 35.8008V36.847C60 38.0063 58.9607 38.9396 57.6695 38.9396H20.3812C19.0901 38.9396 18.0506 38.0063 18.0506 36.847V35.8008C18.0506 34.6416 19.0901 33.7083 20.3812 33.7083Z" fill="#8ABDD2"/>
</svg>
