<svg width="69" height="86" viewBox="0 0 69 86" fill="none" xmlns="http://www.w3.org/2000/svg">
<g clip-path="url(#clip0_1_320)">
<path d="M28.3719 29.1002C27.2546 29.2567 26.2149 29.7595 25.3999 30.5375C24.5849 31.3156 24.0358 32.3294 23.8304 33.4356C23.6249 34.5418 23.7735 35.6845 24.2551 36.7019C24.7367 37.7193 25.5269 38.56 26.5139 39.105C27.501 39.6501 28.6349 39.8719 29.7553 39.7391C30.8757 39.6063 31.9259 39.1256 32.7573 38.365C33.5887 37.6044 34.1593 36.6025 34.3882 35.5008C34.6172 34.3992 34.493 33.2537 34.0332 32.2263C32.9159 32.1573 31.8281 31.841 30.8488 31.3002C29.8695 30.7595 29.0234 30.0079 28.3719 29.1002Z" fill="#612A83"/>
<path d="M46.3594 51.6C46.3575 51.2159 46.3145 50.8332 46.2311 50.4583C45.0746 50.6138 43.8977 50.4949 42.796 50.1114C41.6943 49.7279 40.6988 49.0906 39.8906 48.2513C38.7705 49.3985 37.3113 50.1576 35.7269 50.4175C35.5576 51.1549 35.5465 51.9198 35.6943 52.6618C35.8421 53.4038 36.1456 54.1063 36.5848 54.7233C37.024 55.3402 37.589 55.8576 38.2428 56.2415C38.8966 56.6255 39.6243 56.8673 40.3784 56.9512C41.1325 57.035 41.8958 56.959 42.6184 56.7281C43.3409 56.4973 44.0064 56.1167 44.5711 55.6115C45.1358 55.1062 45.5871 54.4876 45.8953 53.7963C46.2034 53.105 46.3616 52.3565 46.3594 51.6Z" fill="#612A83"/>
<path d="M18.6882 29.0981C17.8629 29.2076 17.0743 29.5066 16.3847 29.9717C15.695 30.4368 15.123 31.0552 14.7138 31.7782C14.3046 32.5012 14.0694 33.309 14.0267 34.1381C13.9839 34.9672 14.1348 35.7948 14.4675 36.5559C14.8001 37.3169 15.3055 37.9905 15.9437 38.5237C16.5819 39.0568 17.3355 39.4349 18.1452 39.6282C18.9549 39.8215 19.7986 39.8246 20.6097 39.6375C21.4209 39.4503 22.1774 39.0779 22.8196 38.5495C22.1578 37.5558 21.743 36.4192 21.6095 35.2338C21.4761 34.0484 21.6277 32.8483 22.052 31.733C20.6983 31.1983 19.5297 30.2829 18.6882 29.0981Z" fill="#612A83"/>
<path d="M31.1373 41.6412C31.4488 43.2927 31.1892 45.0008 30.401 46.4862C30.907 47.0763 31.5353 47.55 32.2425 47.8748C32.9498 48.1997 33.7192 48.3679 34.4978 48.3679C35.2765 48.3679 36.0459 48.1997 36.7532 47.8748C37.4604 47.55 38.0887 47.0763 38.5947 46.4862C37.8038 45.0001 37.5444 43.2896 37.8594 41.6369C36.5835 41.2846 35.4242 40.6009 34.5 39.6556C33.5732 40.6002 32.4135 41.2849 31.1373 41.6412Z" fill="#612A83"/>
<path d="M45.2812 48.375C48.2584 48.375 50.6719 45.9685 50.6719 43C50.6719 40.0315 48.2584 37.625 45.2812 37.625C42.3041 37.625 39.8906 40.0315 39.8906 43C39.8906 45.9685 42.3041 48.375 45.2812 48.375Z" fill="#612A83"/>
<path d="M24.7969 19.35C23.5159 19.3484 22.2764 19.8024 21.3011 20.6305C20.3258 21.4585 19.6787 22.6062 19.476 23.8673C19.2734 25.1285 19.5285 26.4204 20.1955 27.5108C20.8625 28.6012 21.8977 29.4186 23.115 29.8162C24.1639 28.4461 25.656 27.4802 27.338 27.0825C26.9771 26.0032 26.868 24.856 27.0192 23.7284C27.1703 22.6007 27.5777 21.5223 28.2102 20.5755C27.2486 19.786 26.0425 19.353 24.7969 19.35Z" fill="#612A83"/>
<path d="M42.0469 24.725C42.0479 26.2016 41.6105 27.6454 40.7898 28.8745C41.5787 29.5221 42.5359 29.9328 43.5499 30.0588C44.564 30.1847 45.593 30.0207 46.5171 29.5858C47.4412 29.1508 48.2223 28.463 48.7693 27.6024C49.3164 26.7418 49.6068 25.7439 49.6068 24.725C49.6068 23.7061 49.3164 22.7082 48.7693 21.8476C48.2223 20.987 47.4412 20.2991 46.5171 19.8642C45.593 19.4293 44.564 19.2653 43.5499 19.3912C42.5359 19.5171 41.5787 19.9278 40.7898 20.5755C41.6105 21.8046 42.0479 23.2484 42.0469 24.725Z" fill="#612A83"/>
<path d="M47.4375 34.4C47.436 34.8558 47.3931 35.3106 47.3092 35.7588C49.2253 36.2956 50.8522 37.5636 51.8373 39.288C52.7753 38.858 53.5702 38.1692 54.1279 37.3029C54.6856 36.4367 54.9828 35.4293 54.9844 34.4C54.9877 33.1035 54.5171 31.8502 53.6607 30.8747C52.8042 29.8992 51.6205 29.2683 50.3312 29.1002C49.4773 30.2871 48.2965 31.2016 46.9319 31.7329C47.2614 32.5839 47.4328 33.4877 47.4375 34.4Z" fill="#612A83"/>
<path d="M35.5781 17.286V12.9001C35.58 11.3762 36.1221 9.90206 37.1085 8.73812C38.0949 7.57418 39.4622 6.79536 40.9688 6.53927V4.3667C38.8854 4.6312 36.9701 5.64342 35.5811 7.21402C34.1921 8.78462 33.4245 10.806 33.4219 12.9001V17.286C34.136 17.1714 34.864 17.1714 35.5781 17.286Z" fill="#B62D2D"/>
<path d="M34.5 30.1C37.4772 30.1 39.8906 27.6935 39.8906 24.725C39.8906 21.7564 37.4772 19.35 34.5 19.35C31.5228 19.35 29.1094 21.7564 29.1094 24.725C29.1094 27.6935 31.5228 30.1 34.5 30.1Z" fill="#612A83"/>
<path d="M17.6737 22.2622C18.0701 21.1286 18.7319 20.1057 19.6041 19.2782C20.4764 18.4507 21.534 17.8426 22.6891 17.5042C20.2659 16.5757 17.6897 16.1079 15.0937 16.125C14.8078 16.125 14.5336 16.0117 14.3314 15.8101C14.1292 15.6085 14.0156 15.3351 14.0156 15.05C14.0156 14.7649 14.1292 14.4915 14.3314 14.2899C14.5336 14.0883 14.8078 13.975 15.0937 13.975C19.7305 13.9181 24.2689 15.3089 28.0733 17.9525C28.6376 18.2251 29.1656 18.5667 29.6452 18.9694C29.8252 18.8179 30.0139 18.676 30.208 18.5395C29.2045 16.228 27.5454 14.2594 25.4349 12.8755C23.3243 11.4916 20.8541 10.7529 18.3281 10.75H7.59215C7.83454 13.4857 8.9412 16.0743 10.7529 18.143C12.5645 20.2117 14.9877 21.654 17.6737 22.2622Z" fill="#55AE0F"/>
<path d="M38.5559 39.603C39.1767 38.382 40.1197 37.3529 41.2835 36.6267C42.4473 35.9004 43.7878 35.5044 45.1605 35.4814C45.4013 34.3853 45.2803 33.2408 44.8155 32.2188C44.6128 32.2349 44.4101 32.25 44.2031 32.25C42.4273 32.247 40.7093 31.6197 39.3516 30.4784C38.4562 31.2304 37.397 31.7634 36.2584 32.035C36.5168 32.7971 36.6511 33.5955 36.6563 34.4C36.6577 35.6151 36.3617 36.8122 35.7938 37.8873C36.5142 38.7305 37.4793 39.33 38.5559 39.603Z" fill="#612A83"/>
<path d="M34.5 64.5C35.9292 64.4983 37.2993 63.9315 38.3099 62.9238C39.3204 61.9162 39.8889 60.55 39.8906 59.125C39.8906 59.096 39.882 59.067 39.882 59.038C38.7747 58.8762 37.7173 58.4708 36.7865 57.8513C35.8556 57.2318 35.0746 56.4136 34.5 55.4561C33.9253 56.4138 33.1441 57.232 32.2131 57.8515C31.282 58.4711 30.2244 58.8763 29.1169 59.038C29.1169 59.067 29.1094 59.096 29.1094 59.125C29.1111 60.55 29.6796 61.9162 30.6901 62.9238C31.7007 63.9315 33.0708 64.4983 34.5 64.5Z" fill="#612A83"/>
<path d="M29.1094 43C29.1061 42.6364 29.0656 42.274 28.9886 41.9186C27.2545 41.8927 25.5829 41.269 24.2578 40.1534C23.4669 40.8284 22.542 41.3292 21.5436 41.6232C20.5451 41.9172 19.4957 41.9977 18.464 41.8595C18.2943 42.5995 18.2838 43.367 18.4331 44.1113C18.5824 44.8557 18.8882 45.5601 19.3302 46.1781C19.7723 46.7962 20.3406 47.3138 20.9978 47.6971C21.655 48.0803 22.3862 48.3203 23.1431 48.4014C23.9001 48.4825 24.6657 48.4028 25.3895 48.1676C26.1134 47.9324 26.779 47.5469 27.3427 47.0366C27.9064 46.5263 28.3552 45.9028 28.6597 45.207C28.9642 44.5113 29.1175 43.7591 29.1094 43Z" fill="#612A83"/>
<path d="M28.0313 56.975C28.8423 56.9842 29.6448 56.8087 30.3775 56.4619C31.1102 56.115 31.7539 55.606 32.2594 54.9736C32.765 54.3411 33.1191 53.602 33.2947 52.8124C33.4704 52.0229 33.463 51.2037 33.2731 50.4175C31.6891 50.1564 30.2302 49.3975 29.1094 48.2513C28.3009 49.0903 27.3055 49.7275 26.2039 50.1111C25.1023 50.4948 23.9254 50.6141 22.7689 50.4594C22.5901 51.2441 22.5917 52.059 22.7736 52.843C22.9555 53.6271 23.3129 54.3599 23.8191 54.9867C24.3253 55.6134 24.9672 56.1179 25.6966 56.4622C26.4261 56.8065 27.2242 56.9818 28.0313 56.975Z" fill="#612A83"/>
</g>
<defs>
<clipPath id="clip0_1_320">
<rect width="69" height="86" fill="white"/>
</clipPath>
</defs>
</svg>
