<svg width="74" height="93" viewBox="0 0 74 93" fill="none" xmlns="http://www.w3.org/2000/svg">
<path fill-rule="evenodd" clip-rule="evenodd" d="M36.3307 25.528H36.3308C44.062 25.528 50.3876 31.8877 50.3876 39.6607V50.2643L50.3695 50.2592C49.3283 49.9656 47.8002 49.5345 46.256 49.2137C45.3888 49.0336 44.527 48.9116 43.7656 48.8305C42.5711 48.7034 41.6091 48.6765 41.2684 48.6842L41.1953 48.6857V48.6857C40.7197 48.6948 39.1598 48.7248 37.5981 49.0961C36.594 49.3349 35.5924 49.6962 34.8307 49.9711C34.37 50.1373 34.0014 50.2703 33.8012 50.3148C33.1364 50.4628 32.6577 50.5462 32.2744 50.5946C31.8939 50.6426 31.628 50.654 31.3707 50.6595L31.2565 50.6621H31.2548C30.7519 50.674 30.1768 50.6877 28.9106 50.4666C28.2116 50.3445 27.5235 50.1626 26.8364 49.981C26.2936 49.8377 25.7512 49.6943 25.1944 49.5772C24.6967 49.4725 24.1996 49.379 23.7022 49.2855C23.2237 49.1955 22.7447 49.1054 22.2739 49.0074V39.6607C22.2739 31.8877 28.5995 25.528 36.3307 25.528L36.3307 25.528ZM28.1777 53.836C28.8647 53.836 29.4868 54.116 29.9371 54.5687C30.3873 55.0214 30.6659 55.6468 30.6659 56.3376C30.6659 57.0283 30.3873 57.6537 29.9371 58.1064C29.4868 58.5591 28.8647 58.8391 28.1777 58.8391C27.4907 58.8391 26.8687 58.5591 26.4184 58.1064C25.9681 57.6537 25.6896 57.0283 25.6896 56.3376C25.6896 55.6468 25.9681 55.0214 26.4184 54.5687C26.8687 54.116 27.4907 53.836 28.1777 53.836ZM29.5283 54.9797C29.1827 54.6322 28.7052 54.4173 28.1777 54.4173C27.6503 54.4173 27.1728 54.6322 26.8272 54.9797C26.4816 55.3271 26.2678 55.8073 26.2678 56.3376C26.2678 56.8678 26.4816 57.348 26.8272 57.6954C27.1728 58.0429 27.6503 58.2578 28.1777 58.2578C28.7052 58.2578 29.1827 58.0429 29.5283 57.6954C29.8739 57.348 30.0877 56.8678 30.0877 56.3376C30.0877 55.8073 29.8739 55.3271 29.5283 54.9797ZM38.0176 55.215C37.7868 55.215 37.5779 55.309 37.4268 55.461C37.2756 55.6129 37.1821 55.823 37.1821 56.055C37.1821 56.2869 37.2756 56.497 37.4268 56.6489C37.5779 56.8009 37.7868 56.8949 38.0176 56.8949C38.2483 56.8949 38.4572 56.8009 38.6083 56.6489C38.7595 56.497 38.853 56.2869 38.853 56.055C38.853 55.823 38.7595 55.6129 38.6083 55.461C38.4572 55.309 38.2483 55.215 38.0176 55.215ZM37.0181 55.05C37.2738 54.7928 37.6273 54.6337 38.0176 54.6337C38.4079 54.6337 38.7613 54.7928 39.0171 55.05C39.2729 55.3072 39.4312 55.6626 39.4312 56.055C39.4312 56.4474 39.2729 56.8028 39.0171 57.0599C38.7613 57.3171 38.4079 57.4762 38.0176 57.4762C37.6273 57.4762 37.2738 57.3171 37.0181 57.0599C36.7622 56.8028 36.604 56.4474 36.604 56.055C36.604 55.6626 36.7622 55.3072 37.0181 55.05ZM42.5157 59.7375C42.285 59.7375 42.0761 59.8315 41.925 59.9835C41.7738 60.1354 41.6803 60.3455 41.6803 60.5775C41.6803 60.8094 41.7738 61.0195 41.925 61.1714C42.0761 61.3234 42.285 61.4174 42.5157 61.4174C42.7465 61.4174 42.9554 61.3234 43.1065 61.1714C43.2577 61.0195 43.3512 60.8094 43.3512 60.5775C43.3512 60.3455 43.2577 60.1354 43.1065 59.9835C42.9554 59.8316 42.7465 59.7375 42.5157 59.7375ZM41.5162 59.5725C41.772 59.3154 42.1255 59.1562 42.5157 59.1562C42.9061 59.1562 43.2595 59.3154 43.5153 59.5725C43.7711 59.8297 43.9294 60.1851 43.9294 60.5775C43.9294 60.9699 43.7711 61.3253 43.5153 61.5824C43.2595 61.8396 42.9061 61.9987 42.5157 61.9987C42.1255 61.9987 41.772 61.8396 41.5162 61.5824C41.2604 61.3253 41.1021 60.9699 41.1021 60.5775C41.1021 60.1851 41.2604 59.8297 41.5162 59.5725ZM43.6403 54.0844C43.4096 54.0844 43.2006 54.1784 43.0495 54.3303C42.8983 54.4823 42.8048 54.6923 42.8048 54.9243C42.8048 55.1563 42.8984 55.3663 43.0495 55.5183C43.2006 55.6703 43.4096 55.7643 43.6403 55.7643C43.871 55.7643 44.0799 55.6703 44.231 55.5183C44.3822 55.3664 44.4757 55.1563 44.4757 54.9243C44.4757 54.6924 44.3822 54.4823 44.2311 54.3303C44.08 54.1784 43.871 54.0844 43.6403 54.0844ZM42.6407 53.9194C42.8965 53.6622 43.25 53.503 43.6403 53.503C44.0306 53.503 44.384 53.6622 44.6398 53.9194C44.8956 54.1766 45.0539 54.5319 45.0539 54.9243C45.0539 55.3167 44.8956 55.6721 44.6398 55.9293C44.384 56.1865 44.0306 56.3456 43.6403 56.3456C43.25 56.3456 42.8965 56.1865 42.6407 55.9293C42.3849 55.6721 42.2266 55.3167 42.2266 54.9243C42.2266 54.5319 42.3849 54.1765 42.6407 53.9194ZM33.5194 60.8681C33.2887 60.8681 33.0797 60.9622 32.9286 61.1141C32.7775 61.2661 32.6839 61.4761 32.6839 61.7081C32.6839 61.94 32.7775 62.1501 32.9286 62.302C33.0797 62.454 33.2887 62.548 33.5194 62.548C33.7501 62.548 33.959 62.454 34.1102 62.302C34.2613 62.1501 34.3548 61.94 34.3548 61.7081C34.3548 61.4761 34.2613 61.2661 34.1102 61.1141C33.959 60.9622 33.7501 60.8681 33.5194 60.8681ZM32.5198 60.7032C32.7757 60.446 33.1291 60.2868 33.5194 60.2868C33.9097 60.2868 34.2631 60.446 34.5189 60.7032C34.7747 60.9603 34.933 61.3157 34.933 61.7081C34.933 62.1005 34.7747 62.4558 34.5189 62.713C34.2631 62.9702 33.9097 63.1293 33.5194 63.1293C33.1291 63.1293 32.7757 62.9702 32.5198 62.713C32.264 62.4558 32.1058 62.1005 32.1058 61.7081C32.1058 61.3157 32.264 60.9603 32.5198 60.7032ZM50.3875 51.168V65.1H22.2738V49.8947C22.6991 49.9817 23.1211 50.0611 23.5428 50.1404C24.0371 50.2333 24.5311 50.3262 25.0181 50.4286C25.5484 50.5401 26.082 50.6812 26.616 50.8223C27.3253 51.0097 28.0356 51.1975 28.7647 51.3248C30.1023 51.5585 30.7279 51.5436 31.275 51.5305V51.5305L31.3875 51.5279C31.6854 51.5216 31.9864 51.5093 32.3792 51.4597C32.7691 51.4105 33.2705 51.3224 33.9874 51.1629C34.2398 51.1067 34.6319 50.9652 35.1219 50.7885C35.8552 50.5239 36.8194 50.176 37.7944 49.9442C39.2805 49.5908 40.7613 49.5627 41.2104 49.5541H41.2121L41.2851 49.5527C41.6035 49.5454 42.5166 49.572 43.6774 49.6956C44.4164 49.7743 45.25 49.8922 46.0831 50.0652C47.5796 50.3761 49.0999 50.8049 50.1357 51.097L50.3875 51.168L50.3875 51.168Z" fill="#2EE38D"/>
<path fill-rule="evenodd" clip-rule="evenodd" d="M40.6652 27.7598L31.9956 27.9806V16.4701H36.3657H40.6652V27.7598Z" fill="#2EE38D"/>
<path d="M34.9966 19.8539V10.6465H37.6644V19.8539H34.9966Z" fill="#2EE38D"/>
<path d="M27.8963 9.30006C27.1567 9.30006 26.5571 9.90286 26.5571 10.6464C26.5571 11.39 27.1567 11.9928 27.8963 11.9928H46.4591L49.4404 14.9903C49.9632 15.516 50.8111 15.516 51.334 14.9903C51.8568 14.4646 51.8568 13.6121 51.334 13.0864L47.968 9.70213C47.725 9.454 47.3872 9.30005 47.0135 9.30005H27.8963L27.8963 9.30006Z" fill="#2EE38D"/>
</svg>
