<svg width="33" height="64" viewBox="0 0 33 64" fill="none" xmlns="http://www.w3.org/2000/svg">
<path d="M3.3032 33.4876L14.267 62.2347C15.0949 64.4101 18.0151 64.434 18.8749 62.272L30.0716 34.1339C30.345 33.4461 29.75 32.6519 29.0769 32.88C24.9326 34.2845 14.5297 36.4169 4.38169 32.2697C3.6937 31.9888 3.02843 32.766 3.3032 33.4876Z" fill="#E18C39"/>
<path d="M5.67391 30.7757C5.6732 30.7757 5.6732 30.7757 5.67249 30.775C4.62737 30.3428 -0.355415 29.5226 0.533505 24.3933C0.533505 24.3933 0.904125 22.389 2.31774 20.9514C2.76575 20.4952 3.54178 20.6142 3.83146 21.1823C5.48505 24.425 13.141 31.7656 31.1892 27.4768C32.4935 27.167 33.1403 28.9834 31.9333 29.5627C26.3065 32.2626 17.3399 34.5259 5.67391 30.7757Z" fill="#FC77D7"/>
<path d="M8.73897 16.0742C8.00199 15.1935 6.59406 15.2885 5.99411 16.2657C5.1201 17.6885 4.66499 19.7646 7.0087 21.9251C13.9099 28.2865 25.5028 26.6715 25.5028 26.6715C25.5028 26.6715 27.5845 26.5188 29.4965 25.4677C32.4089 23.8668 30.8775 19.4281 27.5774 19.8681C21.5481 20.6727 12.5609 20.6453 8.73897 16.0742Z" fill="#FC77D7"/>
<path d="M25.796 15.0097C24.67 10.8181 21.5147 0.975455 16.6661 0.549535C13.7203 0.289759 12.6262 1.82307 12.2279 3.17264C12.0696 3.70768 12.7086 4.11811 13.1516 3.77456C13.594 3.43101 14.1137 3.2184 14.6135 3.47536C15.2816 3.82032 15.2511 4.59542 15.0835 5.23184C14.9557 5.71619 14.7307 6.16957 14.4417 6.58C13.4846 7.94224 10.2129 12.6893 10.3933 13.67C10.3933 13.67 10.4394 16.8331 17.5167 17.8975C20.6173 18.3628 22.873 18.36 24.3107 17.8517C25.4765 17.4378 26.1155 16.1945 25.796 15.0097ZM23.5929 16.3255C23.2493 16.6852 22.6039 16.6725 22.3007 16.2797C22.0849 15.9995 22.1445 15.6806 22.4427 15.0871C23.2748 13.4348 22.3497 10.1971 22.2624 9.73321C22.251 9.66985 22.3468 9.64944 22.3696 9.70787C22.7785 10.8054 23.9273 13.8974 23.9451 15.0731C23.9522 15.6602 23.8009 16.1086 23.5929 16.3255Z" fill="#FC77D7"/>
</svg>
