<svg width="58" height="73" viewBox="0 0 58 73" fill="none" xmlns="http://www.w3.org/2000/svg">
<path d="M44.1288 11.3944C44.0992 11.395 44.0702 11.3985 44.0406 11.3985C42.3557 11.3985 40.9846 10.0185 40.9846 8.322C40.9846 7.91612 41.0652 7.52951 41.2073 7.17385C41.216 7.15224 41.2235 7.13064 41.2328 7.10961C41.7009 6.01461 42.7826 5.24548 44.04 5.24548C45.7249 5.24548 47.0955 6.62548 47.0955 8.322C47.0955 8.78452 46.9911 9.22136 46.8084 9.61497C46.8118 9.56592 46.8159 9.51686 46.8159 9.46722C46.8159 8.33952 45.9076 7.42614 44.7894 7.42614C43.67 7.42614 42.7629 8.33952 42.7629 9.46722C42.7634 10.3613 43.3347 11.1182 44.1288 11.3944Z" fill="black"/>
<path d="M18.303 8.08606H38.7631C38.7585 8.08606 38.7492 8.25075 38.7492 8.34652C38.7492 11.2846 41.1231 13.6627 44.0411 13.6627C46.9591 13.6627 49.333 11.2905 49.333 8.35295C49.333 8.25659 49.3238 8.08606 49.3185 8.08606H55.8743C56.7768 8.08606 56.4201 9.00761 56.4201 9.00761L56.4183 8.99476C55.0472 13.3923 50.7616 22.449 39.0038 22.4998L37.6333 22.5044L41.1562 27.7639C41.3093 28.1108 41.6161 29.0172 40.9149 29.499C40.1279 30.0398 39.3321 29.0441 39.1738 28.8297L34.909 22.5132C34.6666 22.5138 34.4932 22.5144 34.1736 22.5155V15.5922C34.1736 15.3072 34.0703 14.8453 33.4903 14.8453H33.0089C32.1128 14.8453 31.9354 15.8632 31.9354 15.8632V22.1704L36.098 28.3357C36.2616 28.7416 36.5423 29.645 35.8753 30.1005C35.0007 30.6985 34.1127 29.3495 34.1127 29.3495C34.1127 29.3495 34.1138 29.3542 34.1133 29.3548L29.5655 22.5617C28.5899 22.5809 27.6451 22.6096 26.7316 22.6481L30.5938 28.4139C30.7295 28.7673 30.961 29.6065 30.3479 30.0742L30.2481 30.1414C29.5881 30.5362 28.9826 29.9586 28.7425 29.6765L24.1396 22.8023C23.5932 22.8449 23.0579 22.8922 22.5463 22.9489L21.0789 15.4077C20.9571 15.1285 20.6277 14.6251 19.876 14.746L19.7403 14.7734C18.9318 14.9778 18.8912 15.6839 18.9097 15.966L20.3812 23.2625C17.2277 23.8196 14.8097 24.7984 13.1126 26.5194L8.69419 20.4931C8.40882 20.2987 7.91583 20.0715 7.41877 20.3249L7.08179 20.5761C6.58705 21.0882 6.83819 21.6944 6.95651 21.9146L11.7096 28.3987C11.0467 29.593 10.6169 31.011 10.4034 32.6882L6.60445 32.0353C6.21237 32.0499 5.64977 32.2 5.50767 32.8955L5.48969 33.0036C5.3441 34.0998 6.33533 34.2528 6.33533 34.2528C6.33533 34.2528 6.34751 34.2639 6.36491 34.279L10.2492 34.9477C10.2428 35.3332 10.2422 35.7268 10.2538 36.1356C10.2892 37.4595 10.5102 38.6129 10.8663 39.6221L9.66917 39.9625C9.39135 40.1424 8.97723 40.5541 9.19125 41.325L9.19647 41.3431C9.40991 42.0842 9.92785 42.1648 10.2521 42.1356L11.8923 41.6701C14.0905 44.9137 18.0171 45.924 20.6462 45.924L20.9844 45.9176L31.4609 40.2376C32.2578 40.0157 32.2225 40.588 32.1134 40.9869L28.9025 47.4716L31.8397 52.9355C31.9493 53.3618 31.8658 53.7455 30.9946 53.4167L21.0528 47.9873L20.8649 47.9569C20.0633 47.8255 1.2522 44.5574 1.2522 26.4838C1.25163 8.52406 17.6065 8.08606 18.303 8.08606Z" fill="#B88E24"/>
</svg>
