<svg width="66" height="83" viewBox="0 0 66 83" fill="none" xmlns="http://www.w3.org/2000/svg">
<path d="M22.0687 28.9463C17.7375 38.4913 17.8406 48.2438 22.275 57.7888C21.0375 57.8926 18.5625 57.9963 17.2219 57.8926C11.8594 57.4776 7.21875 53.2238 4.84687 48.5551C1.2375 41.1888 1.54687 31.0213 7.425 24.9001C12.375 19.7126 19.3875 18.2601 26.5031 17.8451C25.6781 18.2601 22.8937 18.9863 22.7906 18.9863C22.275 18.8826 21.7594 19.1938 21.5531 19.6088C21.3469 20.1276 21.5531 20.7501 22.0687 20.9576C22.0687 20.9576 24.5437 21.5801 26.2969 21.6838C24.8531 23.7588 23.3062 26.2488 22.0687 28.9463Z" fill="#FF7300"/>
<path d="M41.1469 58.1C40.9406 58.6188 40.5281 59.0338 40.1156 59.3451C38.4656 60.0713 35.9906 60.7975 32.8969 60.7975C29.9062 60.9013 27.4312 60.175 25.6781 59.3451C25.2656 59.0338 24.9562 58.515 24.6469 58.1C19.9031 48.6588 19.5937 39.2175 23.8219 29.88C25.3687 26.56 27.225 23.7588 28.9781 21.58C29.3906 21.4763 29.9062 21.3725 30.3187 21.2688C30.8344 22.7213 31.7625 24.6925 33.4125 24.9C35.1656 25.0038 36.1969 23.3438 36.9187 21.995C38.5687 24.1738 40.3219 26.7675 41.7656 29.9838C46.2 39.2175 45.8906 48.6588 41.1469 58.1Z" fill="#FF7300"/>
<path d="M61.05 48.5551C58.7812 53.2238 54.0375 57.4776 48.675 57.8926C47.3344 57.9963 44.9625 57.8926 43.6219 57.7888C48.1594 48.1401 48.2625 38.4913 43.8281 28.9463C42.6937 26.4563 41.3531 24.2776 40.0125 22.3063C41.1469 22.4101 42.3844 22.2026 43.725 21.7876C44.1375 21.5801 44.4469 21.1651 44.4469 20.7501C44.4469 19.9201 43.8281 19.8163 43.3125 19.7126C43.1063 19.6088 40.7344 18.5713 39.7031 17.8451C46.7156 18.2601 53.5219 19.7126 58.4719 24.7963C64.4531 31.0213 64.7625 41.1888 61.05 48.5551Z" fill="#FF7300"/>
<path d="M36.9188 5.60254C36.4031 5.39504 35.6813 6.32879 35.475 6.64004C34.8563 7.36629 33.5156 12.6575 32.5875 14.3175C30.8344 17.2225 27.5344 18.9863 24.3375 19.8163C23.925 19.92 22.9969 20.335 22.5844 20.2313C22.5844 20.2313 27.225 21.6838 31.35 19.92C31.35 19.92 33.2063 28.4275 36.7125 20.5425C36.7125 20.5425 40.0125 22.3063 43.5188 20.9575C43.2094 21.0613 42.3844 20.5425 42.1781 20.4388C39.3938 19.2975 36.4031 17.1188 35.8875 13.9025C35.6813 12.45 36.4031 9.44129 38.2594 9.33754C38.4656 9.33754 38.6719 9.23379 38.775 8.92254C38.8781 8.19629 39.0844 6.43254 36.9188 5.60254Z" fill="#55AE0F"/>
</svg>
