<svg width="36" height="71" viewBox="0 0 36 71" fill="none" xmlns="http://www.w3.org/2000/svg">
<path d="M15.89 34.66C15.36 34.43 15.02 33.92 15.02 33.35V4.08C15.66 3.89 16.12 3.31 16.12 2.61V1.54C16.12 0.69 15.43 0 14.58 0H8.27C7.42 0 6.73 0.69 6.73 1.54V2.61C6.73 3.31 7.2 3.89 7.83 4.08V33.35C7.83 33.92 7.49 34.43 6.95 34.66C2.73 36.45 0 40.57 0 45.16V65.34C0 68.05 2.2 70.25 4.9 70.25H17.93C20.63 70.25 22.83 68.05 22.83 65.34V45.16C22.84 40.57 20.11 36.45 15.89 34.66ZM7.74 1.55C7.74 1.26 7.99 1.01 8.28 1.01H14.59C14.88 1.01 15.13 1.26 15.13 1.55V2.62C15.13 2.91 14.88 3.16 14.59 3.16H8.28C7.99 3.16 7.74 2.91 7.74 2.62V1.55Z" fill="#7C1919"/>
<path d="M35.14 53.77L35.52 38.61C35.53 38.23 35.39 37.87 35.12 37.58C34.79 37.24 34.31 37.04 33.81 37.04L27.78 37.03C27.28 37.03 26.8 37.22 26.48 37.56C26.2 37.85 26.05 38.22 26.05 38.61L26.43 53.77C26.48 55.6 28.16 57.06 30.29 57.15V68.08H28C27.48 68.08 27.07 68.5 27.07 69.01V69.31C27.07 69.83 27.49 70.25 28 70.25H33.59C34.11 70.25 34.52 69.83 34.52 69.31V69.01C34.52 68.49 34.1 68.08 33.59 68.08H31.3V57.15C33.42 57.07 35.1 55.61 35.14 53.77Z" fill="#7C1919"/>
</svg>
